<svg width="20" height="26" viewBox="0 0 20 26" fill="none" xmlns="http://www.w3.org/2000/svg">
<path d="M18.6667 21.3333C18.6667 22.3942 18.2452 23.4116 17.4951 24.1618C16.7449 24.9119 15.7275 25.3333 14.6667 25.3333H5.33333C4.27247 25.3333 3.25505 24.9119 2.50491 24.1618C1.75476 23.4116 1.33333 22.3942 1.33333 21.3333V5.33333H0V1.33333H6L7.33333 0H12.6667L14 1.33333H20V5.33333H18.6667V21.3333ZM2.66667 5.33333V21.3333C2.66667 22.0406 2.94762 22.7189 3.44772 23.219C3.94781 23.719 4.62609 24 5.33333 24H14.6667C15.3739 24 16.0522 23.719 16.5523 23.219C17.0524 22.7189 17.3333 22.0406 17.3333 21.3333V5.33333H2.66667ZM18.6667 4V2.66667H13.3333L12 1.33333H8L6.66667 2.66667H1.33333V4H18.6667ZM5.33333 8H6.66667V21.3333H5.33333V8ZM13.3333 8H14.6667V21.3333H13.3333V8Z" fill="black"/>
</svg>
